<svg width="190" height="59" viewBox="0 0 190 59" fill="none" xmlns="http://www.w3.org/2000/svg">
<rect width="190" height="59" rx="5" fill="white"/>
<path d="M68.012 46H71.498L65.618 31.573H62.153L56.273 46H59.738L60.662 43.732H67.088L68.012 46ZM61.733 41.107L63.875 35.836L66.017 41.107H61.733ZM79.8135 34.891C78.3015 34.891 77.0415 35.542 76.1805 36.655V35.143H73.1145V49.612H76.1805V44.467C77.0415 45.601 78.3015 46.252 79.8135 46.252C82.7115 46.252 84.8115 43.9 84.8115 40.561C84.8115 37.243 82.7115 34.891 79.8135 34.891ZM78.9315 43.669C77.4405 43.669 76.3485 42.577 76.1805 40.981V40.141C76.3485 38.566 77.4405 37.474 78.9315 37.474C80.6325 37.474 81.8295 38.755 81.8295 40.561C81.8295 42.388 80.6325 43.669 78.9315 43.669ZM93.6768 34.891C92.1648 34.891 90.9048 35.542 90.0438 36.655V35.143H86.9778V49.612H90.0438V44.467C90.9048 45.601 92.1648 46.252 93.6768 46.252C96.5748 46.252 98.6748 43.9 98.6748 40.561C98.6748 37.243 96.5748 34.891 93.6768 34.891ZM92.7948 43.669C91.3038 43.669 90.2118 42.577 90.0438 40.981V40.141C90.2118 38.566 91.3038 37.474 92.7948 37.474C94.4958 37.474 95.6928 38.755 95.6928 40.561C95.6928 42.388 94.4958 43.669 92.7948 43.669ZM112.25 46.252C115.778 46.252 117.857 44.425 117.857 41.674C117.857 39.007 115.799 38.083 112.691 37.39C110.465 36.886 109.604 36.55 109.604 35.5C109.604 34.639 110.402 33.946 111.725 33.946C113.111 33.946 114.56 34.513 115.841 35.542L117.458 33.316C115.988 32.056 114.161 31.321 111.809 31.321C108.659 31.321 106.475 33.148 106.475 35.815C106.475 38.608 108.638 39.469 111.683 40.162C113.888 40.666 114.728 40.981 114.728 42.01C114.728 42.913 113.93 43.627 112.376 43.627C110.549 43.627 108.995 42.913 107.63 41.737L105.845 43.858C107.525 45.412 109.751 46.252 112.25 46.252ZM125.707 43.312C125.497 43.522 125.077 43.669 124.657 43.669C124.09 43.669 123.628 43.165 123.628 42.451V37.621H125.98V35.143H123.628V32.161H120.688V35.143H119.197V37.621H120.688V42.934C120.688 44.887 122.032 46.252 123.943 46.252C124.825 46.252 125.812 45.874 126.442 45.307L125.707 43.312ZM133.697 46.252C136.91 46.252 139.598 43.648 139.598 40.561C139.598 37.474 136.91 34.891 133.697 34.891C130.463 34.891 127.754 37.474 127.754 40.561C127.754 43.648 130.463 46.252 133.697 46.252ZM133.697 43.669C132.059 43.669 130.694 42.241 130.694 40.561C130.694 38.881 132.059 37.474 133.697 37.474C135.314 37.474 136.679 38.881 136.679 40.561C136.679 42.241 135.314 43.669 133.697 43.669ZM144.738 37.159V35.143H141.672V46H144.738V40.813C144.738 38.776 146.187 37.474 148.455 37.474V34.891C146.796 34.891 145.452 35.752 144.738 37.159ZM155.348 43.543C154.067 43.543 153.122 42.745 152.765 41.569H160.598C160.598 37.474 158.603 34.891 155.201 34.891C152.03 34.891 149.615 37.264 149.615 40.54C149.615 43.879 152.135 46.252 155.369 46.252C156.965 46.252 158.834 45.58 159.8 44.572L157.847 42.577C157.259 43.144 156.209 43.543 155.348 43.543ZM155.327 37.6C156.566 37.6 157.364 38.293 157.658 39.364H152.807C153.206 38.272 154.172 37.6 155.327 37.6Z" fill="#192242"/>
<path d="M57.044 23H59.888C62.552 23 64.448 21.284 64.448 18.872C64.448 16.46 62.552 14.756 59.888 14.756H57.044V23ZM58.256 21.896V15.86H59.96C61.868 15.86 63.2 17.108 63.2 18.872C63.2 20.648 61.868 21.896 59.96 21.896H58.256ZM68.9446 23.144C70.7086 23.144 72.1966 21.656 72.1966 19.892C72.1966 18.128 70.7086 16.652 68.9446 16.652C67.1686 16.652 65.6686 18.128 65.6686 19.892C65.6686 21.656 67.1686 23.144 68.9446 23.144ZM68.9446 22.112C67.8046 22.112 66.8566 21.104 66.8566 19.892C66.8566 18.692 67.8046 17.684 68.9446 17.684C70.0606 17.684 71.0086 18.692 71.0086 19.892C71.0086 21.104 70.0606 22.112 68.9446 22.112ZM74.9008 23H75.9928L77.4928 18.392L78.9808 23H80.0728L82.1608 16.796H80.9488L79.5328 21.416L77.9968 16.796H76.9888L75.4528 21.416L74.0248 16.796H72.8128L74.9008 23ZM86.5161 16.652C85.6761 16.652 84.9201 17.084 84.5481 17.696V16.796H83.3601V23H84.5481V18.98C84.6441 18.248 85.3881 17.684 86.2521 17.684C87.0921 17.684 87.6801 18.332 87.6801 19.256V23H88.8441V19.052C88.8441 17.648 87.8841 16.652 86.5161 16.652ZM90.5437 23H91.7197V14.612H90.5437V23ZM96.3899 23.144C98.1539 23.144 99.6419 21.656 99.6419 19.892C99.6419 18.128 98.1539 16.652 96.3899 16.652C94.6139 16.652 93.1139 18.128 93.1139 19.892C93.1139 21.656 94.6139 23.144 96.3899 23.144ZM96.3899 22.112C95.2499 22.112 94.3019 21.104 94.3019 19.892C94.3019 18.692 95.2499 17.684 96.3899 17.684C97.5059 17.684 98.4539 18.692 98.4539 19.892C98.4539 21.104 97.5059 22.112 96.3899 22.112ZM103.636 16.652C102.952 16.652 102.172 16.832 101.284 17.276L101.716 18.152C102.256 17.876 102.856 17.636 103.468 17.636C104.704 17.636 105.064 18.464 105.064 19.244V19.436C104.464 19.232 103.804 19.1 103.192 19.1C101.824 19.1 100.708 19.928 100.708 21.164C100.708 22.376 101.68 23.144 103 23.144C103.756 23.144 104.608 22.796 105.064 22.148V23H106.228V19.244C106.228 17.708 105.304 16.652 103.636 16.652ZM103.228 22.208C102.448 22.208 101.848 21.8 101.848 21.128C101.848 20.456 102.544 19.988 103.372 19.988C103.984 19.988 104.56 20.072 105.064 20.228V21.056C104.86 21.824 103.996 22.208 103.228 22.208ZM112.722 14.612V17.864C112.242 17.108 111.474 16.652 110.514 16.652C108.882 16.652 107.658 17.996 107.658 19.892C107.658 21.8 108.882 23.144 110.514 23.144C111.474 23.144 112.242 22.688 112.722 21.92V23H113.898V14.612H112.722ZM110.802 22.112C109.662 22.112 108.858 21.188 108.858 19.892C108.858 18.596 109.662 17.684 110.802 17.684C111.918 17.684 112.722 18.596 112.722 19.892C112.722 21.188 111.918 22.112 110.802 22.112ZM122.054 23.144C123.818 23.144 125.306 21.656 125.306 19.892C125.306 18.128 123.818 16.652 122.054 16.652C120.278 16.652 118.778 18.128 118.778 19.892C118.778 21.656 120.278 23.144 122.054 23.144ZM122.054 22.112C120.914 22.112 119.966 21.104 119.966 19.892C119.966 18.692 120.914 17.684 122.054 17.684C123.17 17.684 124.118 18.692 124.118 19.892C124.118 21.104 123.17 22.112 122.054 22.112ZM129.852 16.652C129.012 16.652 128.256 17.084 127.884 17.696V16.796H126.696V23H127.884V18.98C127.98 18.248 128.724 17.684 129.588 17.684C130.428 17.684 131.016 18.332 131.016 19.256V23H132.18V19.052C132.18 17.648 131.22 16.652 129.852 16.652Z" fill="#192242"/>
<path fill-rule="evenodd" clip-rule="evenodd" d="M43.7238 35.6409C43.1151 36.9776 42.8245 37.5741 42.0406 38.7551C40.9486 40.4042 39.4078 42.4582 37.4985 42.4757C35.8025 42.4913 35.3666 41.3813 33.0643 41.3946C30.7619 41.408 30.2821 42.4954 28.586 42.4797C26.6767 42.4629 25.218 40.6081 24.1248 38.9578C21.069 34.3456 20.7497 28.9335 22.6344 26.0563C23.9736 24.0104 26.0874 22.815 28.074 22.815C30.0969 22.815 31.3688 23.9146 33.042 23.9146C34.6648 23.9146 35.6531 22.8132 37.9924 22.8132C39.7605 22.8132 41.634 23.7676 42.9692 25.4168C38.5947 27.7932 39.3059 33.9848 43.7238 35.6409Z" fill="#192242"/>
<path fill-rule="evenodd" clip-rule="evenodd" d="M36.8009 19.9789C37.6829 18.8773 38.3516 17.323 38.1084 15.7333C36.6677 15.8291 34.9839 16.7213 34.0003 17.8839C33.1073 18.9388 32.37 20.5037 32.6569 22.0248C34.2283 22.0727 35.8556 21.1586 36.8009 19.9789Z" fill="#192242"/>
</svg>
